<svg xmlns="http://www.w3.org/2000/svg" xmlns:xlink="http://www.w3.org/1999/xlink" width="2560" height="1440" preserveAspectRatio="none" viewBox="0 0 2560 1440"><g mask="url(&quot;#a&quot;)" fill="none"><path fill="rgba(31, 32, 41, 1)" d="M0 0h2560v1440H0z"/><use xlink:href="#b"/><use xlink:href="#b" y="720"/><use xlink:href="#b" x="720"/><use xlink:href="#b" x="720" y="720"/><use xlink:href="#b" x="1440"/><use xlink:href="#b" x="1440" y="720"/><use xlink:href="#b" x="2160"/><use xlink:href="#b" x="2160" y="720"/></g><defs><path d="M-1 0a1 1 0 1 0 2 0 1 1 0 1 0-2 0z" id="h"/><path d="M-3 0a3 3 0 1 0 6 0 3 3 0 1 0-6 0z" id="c"/><path d="M-5 0A5 5 0 1 0 5 0 5 5 0 1 0-5 0z" id="f"/><path d="m2-2-4 4z" id="e"/><path d="M6-6-6 6z" id="d"/><path d="m30-30-60 60z" id="g"/><mask id="a"><path fill="#fff" d="M0 0h2560v1440H0z"/></mask></defs><symbol id="b"><use xlink:href="#c" x="30" y="30" stroke="rgba(43, 44, 55, 1)"/><use xlink:href="#d" x="30" y="90" stroke="rgba(43, 44, 55, 1)"/><use xlink:href="#e" x="30" y="150" stroke="rgba(43, 44, 55, 1)"/><use xlink:href="#d" x="30" y="210" stroke="rgba(43, 44, 55, 1)"/><use xlink:href="#f" x="30" y="270" stroke="rgba(43, 44, 55, 1)"/><use xlink:href="#f" x="30" y="330" stroke="rgba(43, 44, 55, 1)"/><use xlink:href="#e" x="30" y="390" stroke="rgba(43, 44, 55, 1)"/><use xlink:href="#c" x="30" y="450" stroke="rgba(43, 44, 55, 1)"/><use xlink:href="#f" x="30" y="510" stroke="rgba(43, 44, 55, 1)"/><use xlink:href="#c" x="30" y="570" stroke="rgba(43, 44, 55, 1)"/><use xlink:href="#e" x="30" y="630" stroke="rgba(43, 44, 55, 1)"/><use xlink:href="#e" x="30" y="690" stroke="rgba(43, 44, 55, 1)"/><use xlink:href="#g" x="90" y="30" stroke="rgba(43, 44, 55, 1)" stroke-width="3"/><use xlink:href="#h" x="90" y="90" stroke="rgba(43, 44, 55, 1)"/><use xlink:href="#d" x="90" y="150" stroke="rgba(43, 44, 55, 1)"/><use xlink:href="#e" x="90" y="210" stroke="rgba(43, 44, 55, 1)"/><use xlink:href="#f" x="90" y="270" stroke="rgba(43, 44, 55, 1)"/><use xlink:href="#d" x="90" y="330" stroke="rgba(43, 44, 55, 1)"/><use xlink:href="#c" x="90" y="390" stroke="rgba(43, 44, 55, 1)"/><use xlink:href="#f" x="90" y="450" stroke="rgba(43, 44, 55, 1)"/><use xlink:href="#g" x="90" y="510" stroke="rgba(43, 44, 55, 1)" stroke-width="3"/><use xlink:href="#d" x="90" y="570" stroke="rgba(43, 44, 55, 1)"/><use xlink:href="#d" x="90" y="630" stroke="rgba(43, 44, 55, 1)"/><use xlink:href="#e" x="90" y="690" stroke="rgba(43, 44, 55, 1)"/><use xlink:href="#h" x="150" y="30" stroke="rgba(43, 44, 55, 1)"/><use xlink:href="#f" x="150" y="90" stroke="rgba(43, 44, 55, 1)"/><use xlink:href="#d" x="150" y="150" stroke="rgba(43, 44, 55, 1)"/><use xlink:href="#d" x="150" y="210" stroke="rgba(43, 44, 55, 1)"/><use xlink:href="#d" x="150" y="270" stroke="rgba(43, 44, 55, 1)"/><use xlink:href="#f" x="150" y="330" stroke="rgba(43, 44, 55, 1)"/><use xlink:href="#f" x="150" y="390" stroke="rgba(43, 44, 55, 1)"/><use xlink:href="#h" x="150" y="450" stroke="rgba(43, 44, 55, 1)"/><use xlink:href="#f" x="150" y="510" stroke="rgba(43, 44, 55, 1)"/><use xlink:href="#h" x="150" y="570" stroke="rgba(43, 44, 55, 1)"/><use xlink:href="#f" x="150" y="630" stroke="rgba(43, 44, 55, 1)"/><use xlink:href="#h" x="150" y="690" stroke="rgba(43, 44, 55, 1)"/><use xlink:href="#c" x="210" y="30" stroke="rgba(43, 44, 55, 1)"/><use xlink:href="#d" x="210" y="90" stroke="rgba(43, 44, 55, 1)"/><use xlink:href="#d" x="210" y="150" stroke="rgba(43, 44, 55, 1)"/><use xlink:href="#g" x="210" y="210" stroke="rgba(43, 44, 55, 1)" stroke-width="3"/><use xlink:href="#d" x="210" y="270" stroke="rgba(43, 44, 55, 1)"/><use xlink:href="#f" x="210" y="330" stroke="rgba(43, 44, 55, 1)"/><use xlink:href="#d" x="210" y="390" stroke="rgba(43, 44, 55, 1)"/><use xlink:href="#c" x="210" y="450" stroke="rgba(43, 44, 55, 1)"/><use xlink:href="#h" x="210" y="510" stroke="rgba(43, 44, 55, 1)"/><use xlink:href="#h" x="210" y="570" stroke="rgba(43, 44, 55, 1)"/><use xlink:href="#d" x="210" y="630" stroke="rgba(43, 44, 55, 1)"/><use xlink:href="#d" x="210" y="690" stroke="rgba(43, 44, 55, 1)"/><use xlink:href="#e" x="270" y="30" stroke="rgba(43, 44, 55, 1)"/><use xlink:href="#g" x="270" y="90" stroke="rgba(43, 44, 55, 1)" stroke-width="3"/><use xlink:href="#f" x="270" y="150" stroke="rgba(43, 44, 55, 1)"/><use xlink:href="#e" x="270" y="210" stroke="rgba(43, 44, 55, 1)"/><use xlink:href="#d" x="270" y="270" stroke="rgba(43, 44, 55, 1)"/><use xlink:href="#f" x="270" y="330" stroke="rgba(43, 44, 55, 1)"/><use xlink:href="#e" x="270" y="390" stroke="rgba(43, 44, 55, 1)"/><use xlink:href="#d" x="270" y="450" stroke="rgba(43, 44, 55, 1)"/><use xlink:href="#d" x="270" y="510" stroke="rgba(43, 44, 55, 1)"/><use xlink:href="#f" x="270" y="570" stroke="rgba(43, 44, 55, 1)"/><use xlink:href="#d" x="270" y="630" stroke="rgba(43, 44, 55, 1)"/><use xlink:href="#d" x="270" y="690" stroke="rgba(43, 44, 55, 1)"/><use xlink:href="#e" x="330" y="30" stroke="rgba(43, 44, 55, 1)"/><use xlink:href="#d" x="330" y="90" stroke="rgba(43, 44, 55, 1)"/><use xlink:href="#d" x="330" y="150" stroke="rgba(43, 44, 55, 1)"/><use xlink:href="#e" x="330" y="210" stroke="rgba(43, 44, 55, 1)"/><use xlink:href="#f" x="330" y="270" stroke="rgba(43, 44, 55, 1)"/><use xlink:href="#e" x="330" y="330" stroke="rgba(43, 44, 55, 1)"/><use xlink:href="#d" x="330" y="390" stroke="rgba(43, 44, 55, 1)"/><use xlink:href="#f" x="330" y="450" stroke="rgba(43, 44, 55, 1)"/><use xlink:href="#f" x="330" y="510" stroke="rgba(43, 44, 55, 1)"/><use xlink:href="#c" x="330" y="570" stroke="rgba(43, 44, 55, 1)"/><use xlink:href="#d" x="330" y="630" stroke="rgba(43, 44, 55, 1)"/><use xlink:href="#d" x="330" y="690" stroke="rgba(43, 44, 55, 1)"/><use xlink:href="#f" x="390" y="30" stroke="rgba(43, 44, 55, 1)"/><use xlink:href="#c" x="390" y="90" stroke="rgba(43, 44, 55, 1)"/><use xlink:href="#g" x="390" y="150" stroke="rgba(43, 44, 55, 1)" stroke-width="3"/><use xlink:href="#e" x="390" y="210" stroke="rgba(43, 44, 55, 1)"/><use xlink:href="#f" x="390" y="270" stroke="rgba(43, 44, 55, 1)"/><use xlink:href="#f" x="390" y="330" stroke="rgba(43, 44, 55, 1)"/><use xlink:href="#g" x="390" y="390" stroke="rgba(43, 44, 55, 1)" stroke-width="3"/><use xlink:href="#d" x="390" y="450" stroke="rgba(43, 44, 55, 1)"/><use xlink:href="#e" x="390" y="510" stroke="rgba(43, 44, 55, 1)"/><use xlink:href="#h" x="390" y="570" stroke="rgba(43, 44, 55, 1)"/><use xlink:href="#e" x="390" y="630" stroke="rgba(43, 44, 55, 1)"/><use xlink:href="#h" x="390" y="690" stroke="rgba(43, 44, 55, 1)"/><use xlink:href="#d" x="450" y="30" stroke="rgba(43, 44, 55, 1)"/><use xlink:href="#h" x="450" y="90" stroke="rgba(43, 44, 55, 1)"/><use xlink:href="#e" x="450" y="150" stroke="rgba(43, 44, 55, 1)"/><use xlink:href="#c" x="450" y="210" stroke="rgba(43, 44, 55, 1)"/><use xlink:href="#g" x="450" y="270" stroke="rgba(43, 44, 55, 1)" stroke-width="3"/><use xlink:href="#f" x="450" y="330" stroke="rgba(43, 44, 55, 1)"/><use xlink:href="#f" x="450" y="390" stroke="rgba(43, 44, 55, 1)"/><use xlink:href="#f" x="450" y="450" stroke="rgba(43, 44, 55, 1)"/><use xlink:href="#f" x="450" y="510" stroke="rgba(43, 44, 55, 1)"/><use xlink:href="#g" x="450" y="570" stroke="rgba(43, 44, 55, 1)" stroke-width="3"/><use xlink:href="#d" x="450" y="630" stroke="rgba(43, 44, 55, 1)"/><use xlink:href="#d" x="450" y="690" stroke="rgba(43, 44, 55, 1)"/><use xlink:href="#d" x="510" y="30" stroke="rgba(43, 44, 55, 1)"/><use xlink:href="#e" x="510" y="90" stroke="rgba(43, 44, 55, 1)"/><use xlink:href="#e" x="510" y="150" stroke="rgba(43, 44, 55, 1)"/><use xlink:href="#d" x="510" y="210" stroke="rgba(43, 44, 55, 1)"/><use xlink:href="#c" x="510" y="270" stroke="rgba(43, 44, 55, 1)"/><use xlink:href="#f" x="510" y="330" stroke="rgba(43, 44, 55, 1)"/><use xlink:href="#f" x="510" y="390" stroke="rgba(43, 44, 55, 1)"/><use xlink:href="#c" x="510" y="450" stroke="rgba(43, 44, 55, 1)"/><use xlink:href="#f" x="510" y="510" stroke="rgba(43, 44, 55, 1)"/><use xlink:href="#h" x="510" y="570" stroke="rgba(43, 44, 55, 1)"/><use xlink:href="#f" x="510" y="630" stroke="rgba(43, 44, 55, 1)"/><use xlink:href="#f" x="510" y="690" stroke="rgba(43, 44, 55, 1)"/><use xlink:href="#f" x="570" y="30" stroke="rgba(43, 44, 55, 1)"/><use xlink:href="#f" x="570" y="90" stroke="rgba(43, 44, 55, 1)"/><use xlink:href="#e" x="570" y="150" stroke="rgba(43, 44, 55, 1)"/><use xlink:href="#d" x="570" y="210" stroke="rgba(43, 44, 55, 1)"/><use xlink:href="#h" x="570" y="270" stroke="rgba(43, 44, 55, 1)"/><use xlink:href="#f" x="570" y="330" stroke="rgba(43, 44, 55, 1)"/><use xlink:href="#e" x="570" y="390" stroke="rgba(43, 44, 55, 1)"/><use xlink:href="#e" x="570" y="450" stroke="rgba(43, 44, 55, 1)"/><use xlink:href="#e" x="570" y="510" stroke="rgba(43, 44, 55, 1)"/><use xlink:href="#f" x="570" y="570" stroke="rgba(43, 44, 55, 1)"/><use xlink:href="#d" x="570" y="630" stroke="rgba(43, 44, 55, 1)"/><use xlink:href="#d" x="570" y="690" stroke="rgba(43, 44, 55, 1)"/><use xlink:href="#f" x="630" y="30" stroke="rgba(43, 44, 55, 1)"/><use xlink:href="#d" x="630" y="90" stroke="rgba(43, 44, 55, 1)"/><use xlink:href="#d" x="630" y="150" stroke="rgba(43, 44, 55, 1)"/><use xlink:href="#d" x="630" y="210" stroke="rgba(43, 44, 55, 1)"/><use xlink:href="#h" x="630" y="270" stroke="rgba(43, 44, 55, 1)"/><use xlink:href="#d" x="630" y="330" stroke="rgba(43, 44, 55, 1)"/><use xlink:href="#h" x="630" y="390" stroke="rgba(43, 44, 55, 1)"/><use xlink:href="#f" x="630" y="450" stroke="rgba(43, 44, 55, 1)"/><use xlink:href="#f" x="630" y="510" stroke="rgba(43, 44, 55, 1)"/><use xlink:href="#d" x="630" y="570" stroke="rgba(43, 44, 55, 1)"/><use xlink:href="#g" x="630" y="630" stroke="rgba(43, 44, 55, 1)" stroke-width="3"/><use xlink:href="#c" x="630" y="690" stroke="rgba(43, 44, 55, 1)"/><use xlink:href="#f" x="690" y="30" stroke="rgba(43, 44, 55, 1)"/><use xlink:href="#f" x="690" y="90" stroke="rgba(43, 44, 55, 1)"/><use xlink:href="#h" x="690" y="150" stroke="rgba(43, 44, 55, 1)"/><use xlink:href="#f" x="690" y="210" stroke="rgba(43, 44, 55, 1)"/><use xlink:href="#f" x="690" y="270" stroke="rgba(43, 44, 55, 1)"/><use xlink:href="#d" x="690" y="330" stroke="rgba(43, 44, 55, 1)"/><use xlink:href="#d" x="690" y="390" stroke="rgba(43, 44, 55, 1)"/><use xlink:href="#d" x="690" y="450" stroke="rgba(43, 44, 55, 1)"/><use xlink:href="#c" x="690" y="510" stroke="rgba(43, 44, 55, 1)"/><use xlink:href="#e" x="690" y="570" stroke="rgba(43, 44, 55, 1)"/><use xlink:href="#d" x="690" y="630" stroke="rgba(43, 44, 55, 1)"/><use xlink:href="#f" x="690" y="690" stroke="rgba(43, 44, 55, 1)"/></symbol></svg>