<svg xmlns="http://www.w3.org/2000/svg" version="1.1" xmlns:xlink="http://www.w3.org/1999/xlink" xmlns:svgjs="http://svgjs.dev/svgjs" width="1440" height="560" preserveAspectRatio="none" viewBox="0 0 1440 560">
    <g mask="url(&quot;#SvgjsMask1088&quot;)" fill="none">
        <rect width="1440" height="560" x="0" y="0" fill="rgba(188, 71, 73, 1)"></rect>
        <use xlink:href="#SvgjsG1093" transform="translate(0, 0)" fill="rgba(255, 255, 255, 1)"></use>
        <use xlink:href="#SvgjsG1093" transform="translate(0, 480)" fill="rgba(255, 255, 255, 1)"></use>
        <use xlink:href="#SvgjsG1093" transform="translate(480, 0)" fill="rgba(255, 255, 255, 1)"></use>
        <use xlink:href="#SvgjsG1093" transform="translate(480, 480)" fill="rgba(255, 255, 255, 1)"></use>
        <use xlink:href="#SvgjsG1093" transform="translate(960, 0)" fill="rgba(255, 255, 255, 1)"></use>
        <use xlink:href="#SvgjsG1093" transform="translate(960, 480)" fill="rgba(255, 255, 255, 1)"></use>
    </g>
    <defs>
        <mask id="SvgjsMask1088">
            <rect width="1440" height="560" fill="#ffffff"></rect>
        </mask>
        <g id="SvgjsG1091">
            <path d="M-0.009 12.124L8 3.609l8.009 8.515z"></path>
            <path d="M1.843 6.545L8 0l6.157 6.545z m4.761 0.502h2.792v8.955H6.604z"></path>
        </g>
        <g id="SvgjsG1092">
            <path d="M11.46 4.548H9.536l1.547-0.623a0.324 0.324 0 0 0-0.24-0.604l-1.743 0.706 1.423-1.412a0.331 0.331 0 0 0 0.096-0.231 0.324 0.324 0 0 0-0.551-0.231l-2.002 1.991 0.009-2.827a0.32 0.32 0 0 0-0.32-0.32H7.751c-0.178 0-0.32 0.142-0.323 0.32l-0.009 2.827c-0.645-0.649-1.796-1.813-1.796-1.813a0.325 0.325 0 0 0-0.459 0 0.325 0.325 0 0 0 0 0.458l1.25 1.263-1.801-0.72a0.324 0.324 0 1 0-0.238 0.6l1.55 0.619H4.066a0.484 0.484 0 0 0-0.486 0.484v10.311c0 0.267 0.217 0.48 0.486 0.48h7.395c0.267 0 0.48-0.213 0.48-0.48v-10.311c0-0.267-0.213-0.484-0.48-0.484z m-0.484 4.312H8.075v-3.342h2.901v3.342z m-3.548 0h-2.88v-3.342h2.88v3.342z m-2.88 0.648h2.88v5.347h-2.88V9.508z m3.527 0h2.901v5.347H8.075V9.508z" fill-rule="evenodd"></path>
        </g>
        <g id="SvgjsG1090">
            <path d="M6.846 8.046l0.633 0.934h1.178l0.544-0.934-0.573-0.995h-1.181l-0.601 0.995zM7.331 15.562V13.449l-1.181 0.664-0.601-0.345V13.024l1.751-0.995V10.64l-1.271 0.816v-1.471l-1.214 0.7v1.994l-0.664 0.412-0.561-0.372V11.382L1.747 12.422 0.96 12.091V11.248l1.934-1.058-1.21-0.608v-0.771l0.687-0.376 1.735 1.022 1.206-0.696-0.03-0.022-1.232-0.707 1.197-0.742-1.201-0.696L2.311 7.614l-0.651-0.324v-0.769l1.174-0.66L0.96 4.844v-0.844l0.72-0.371 1.847 1.067v-1.36l0.557-0.375 0.682 0.393-0.004 2.035 1.241 0.709-0.005-1.438 1.301 0.7v-1.388L5.549 2.974v-0.738l0.601-0.348 1.181 0.664V0.443L8.006 0l0.682 0.443v2.109l1.224-0.678 0.615 0.407v0.664L8.715 3.972v1.388l1.239-0.755v1.511l1.277-0.696v-2.176l0.615-0.286 0.646 0.286v1.392l1.901-1.027 0.664 0.405v0.787l-1.856 1.055 1.161 0.651v0.751L13.76 7.592l-1.782-1.053-1.232 0.782 1.192 0.743-1.228 0.706 1.268 0.664L13.76 8.439l0.572 0.405v0.718L13.214 10.19l1.781 1.058v0.83l-0.754 0.344-1.749-0.995v1.317l-0.628 0.351-0.615-0.351V10.745l-1.295-0.737v1.388L8.715 10.64v1.389L10.466 13.024v0.787l-0.605 0.302-1.173-0.664v2.113L8.006 16l-0.675-0.438z"></path>
        </g>
        <g id="SvgjsG1089">
            <path d="M15.02 9.49l-0.733-1.271-2.086 1.205L9.733 8l2.468-1.424 2.087 1.205 0.733-1.271-1.354-0.781 1.68-0.97-0.867-1.501-1.679 0.97v-1.563h-1.467v2.409L8.867 6.499V3.65l2.087-1.205-0.734-1.27L8.867 1.956V0.018h-1.734v1.939L5.78 1.175l-0.733 1.27 2.086 1.205V6.499L4.666 5.074V2.665h-1.466v1.562l-1.679-0.969-0.867 1.501 1.679 0.97-1.354 0.781 0.734 1.27 2.087-1.205L6.267 8 3.8 9.424l-2.087-1.205-0.733 1.271 1.353 0.781-1.679 0.969 0.867 1.502 1.679-0.97v1.564h1.466V10.925L7.133 9.501v2.849l-2.086 1.205 0.733 1.27 1.353-0.782v1.938h1.734v-1.938l1.353 0.782 0.733-1.27-2.086-1.205v-2.849L11.334 10.925v2.41h1.467V11.772l1.679 0.969 0.867-1.501-1.68-0.969z"></path>
            <path d="M-12.034 8v7.981"></path>
            <path d="M-12.034 12.696l2.586 1.493"></path>
            <path d="M-12.034 8V0.018"></path>
            <path d="M-12.034 3.304l-2.587-1.494m2.587 1.494l2.587-1.494m-2.587 10.886l-2.587 1.493"></path>
            <path d="M-12.034 8L-18.947 11.991"></path>
            <path d="M-16.101 10.348v2.988"></path>
            <path d="M-12.034 8l6.912-3.991"></path>
            <path d="M-7.967 5.652V2.665m0 2.987l2.587 1.493m-10.721 3.203l-2.587-1.493"></path>
            <path d="M-12.034 8L-18.947 4.009"></path>
            <path d="M-16.101 5.652l-2.587 1.493"></path>
            <path d="M-12.034 8l6.912 3.991"></path>
            <path d="M-7.967 10.348l2.587-1.493m-2.587 1.493v2.987m-8.134-7.683V2.665"></path>
        </g>
        <g id="SvgjsG1093">
            <use xlink:href="#SvgjsG1089" transform="translate(0, 0) scale(2)" fill="rgba(255, 255, 255, 1)"></use>
            <use xlink:href="#SvgjsG1089" transform="translate(0, 48) scale(2)" fill="rgba(255, 255, 255, 1)"></use>
            <use xlink:href="#SvgjsG1090" transform="translate(0, 96) scale(2)" fill="rgba(255, 255, 255, 1)"></use>
            <use xlink:href="#SvgjsG1091" transform="translate(0, 144) scale(2)" fill="rgba(255, 255, 255, 1)"></use>
            <use xlink:href="#SvgjsG1092" transform="translate(0, 192) scale(2)" fill="rgba(255, 255, 255, 1)"></use>
            <use xlink:href="#SvgjsG1089" transform="translate(0, 240) scale(2)" fill="rgba(255, 255, 255, 1)"></use>
            <use xlink:href="#SvgjsG1089" transform="translate(0, 288) scale(2)" fill="rgba(255, 255, 255, 1)"></use>
            <use xlink:href="#SvgjsG1091" transform="translate(0, 336) scale(2)" fill="rgba(255, 255, 255, 1)"></use>
            <use xlink:href="#SvgjsG1090" transform="translate(0, 384) scale(2)" fill="rgba(255, 255, 255, 1)"></use>
            <use xlink:href="#SvgjsG1092" transform="translate(0, 432) scale(2)" fill="rgba(255, 255, 255, 1)"></use>
            <use xlink:href="#SvgjsG1090" transform="translate(48, 0) scale(2)" fill="rgba(255, 255, 255, 1)"></use>
            <use xlink:href="#SvgjsG1090" transform="translate(48, 48) scale(2)" fill="rgba(255, 255, 255, 1)"></use>
            <use xlink:href="#SvgjsG1091" transform="translate(48, 96) scale(2)" fill="rgba(255, 255, 255, 1)"></use>
            <use xlink:href="#SvgjsG1092" transform="translate(48, 144) scale(2)" fill="rgba(255, 255, 255, 1)"></use>
            <use xlink:href="#SvgjsG1091" transform="translate(48, 192) scale(2)" fill="rgba(255, 255, 255, 1)"></use>
            <use xlink:href="#SvgjsG1090" transform="translate(48, 240) scale(2)" fill="rgba(255, 255, 255, 1)"></use>
            <use xlink:href="#SvgjsG1090" transform="translate(48, 288) scale(2)" fill="rgba(255, 255, 255, 1)"></use>
            <use xlink:href="#SvgjsG1091" transform="translate(48, 336) scale(2)" fill="rgba(255, 255, 255, 1)"></use>
            <use xlink:href="#SvgjsG1090" transform="translate(48, 384) scale(2)" fill="rgba(255, 255, 255, 1)"></use>
            <use xlink:href="#SvgjsG1092" transform="translate(48, 432) scale(2)" fill="rgba(255, 255, 255, 1)"></use>
            <use xlink:href="#SvgjsG1089" transform="translate(96, 0) scale(2)" fill="rgba(255, 255, 255, 1)"></use>
            <use xlink:href="#SvgjsG1091" transform="translate(96, 48) scale(2)" fill="rgba(255, 255, 255, 1)"></use>
            <use xlink:href="#SvgjsG1091" transform="translate(96, 96) scale(2)" fill="rgba(255, 255, 255, 1)"></use>
            <use xlink:href="#SvgjsG1089" transform="translate(96, 144) scale(2)" fill="rgba(255, 255, 255, 1)"></use>
            <use xlink:href="#SvgjsG1090" transform="translate(96, 192) scale(2)" fill="rgba(255, 255, 255, 1)"></use>
            <use xlink:href="#SvgjsG1092" transform="translate(96, 240) scale(2)" fill="rgba(255, 255, 255, 1)"></use>
            <use xlink:href="#SvgjsG1092" transform="translate(96, 288) scale(2)" fill="rgba(255, 255, 255, 1)"></use>
            <use xlink:href="#SvgjsG1092" transform="translate(96, 336) scale(2)" fill="rgba(255, 255, 255, 1)"></use>
            <use xlink:href="#SvgjsG1091" transform="translate(96, 384) scale(2)" fill="rgba(255, 255, 255, 1)"></use>
            <use xlink:href="#SvgjsG1092" transform="translate(96, 432) scale(2)" fill="rgba(255, 255, 255, 1)"></use>
            <use xlink:href="#SvgjsG1091" transform="translate(144, 0) scale(2)" fill="rgba(255, 255, 255, 1)"></use>
            <use xlink:href="#SvgjsG1092" transform="translate(144, 48) scale(2)" fill="rgba(255, 255, 255, 1)"></use>
            <use xlink:href="#SvgjsG1089" transform="translate(144, 96) scale(2)" fill="rgba(255, 255, 255, 1)"></use>
            <use xlink:href="#SvgjsG1091" transform="translate(144, 144) scale(2)" fill="rgba(255, 255, 255, 1)"></use>
            <use xlink:href="#SvgjsG1089" transform="translate(144, 192) scale(2)" fill="rgba(255, 255, 255, 1)"></use>
            <use xlink:href="#SvgjsG1092" transform="translate(144, 240) scale(2)" fill="rgba(255, 255, 255, 1)"></use>
            <use xlink:href="#SvgjsG1090" transform="translate(144, 288) scale(2)" fill="rgba(255, 255, 255, 1)"></use>
            <use xlink:href="#SvgjsG1089" transform="translate(144, 336) scale(2)" fill="rgba(255, 255, 255, 1)"></use>
            <use xlink:href="#SvgjsG1092" transform="translate(144, 384) scale(2)" fill="rgba(255, 255, 255, 1)"></use>
            <use xlink:href="#SvgjsG1091" transform="translate(144, 432) scale(2)" fill="rgba(255, 255, 255, 1)"></use>
            <use xlink:href="#SvgjsG1090" transform="translate(192, 0) scale(2)" fill="rgba(255, 255, 255, 1)"></use>
            <use xlink:href="#SvgjsG1090" transform="translate(192, 48) scale(2)" fill="rgba(255, 255, 255, 1)"></use>
            <use xlink:href="#SvgjsG1089" transform="translate(192, 96) scale(2)" fill="rgba(255, 255, 255, 1)"></use>
            <use xlink:href="#SvgjsG1090" transform="translate(192, 144) scale(2)" fill="rgba(255, 255, 255, 1)"></use>
            <use xlink:href="#SvgjsG1091" transform="translate(192, 192) scale(2)" fill="rgba(255, 255, 255, 1)"></use>
            <use xlink:href="#SvgjsG1089" transform="translate(192, 240) scale(2)" fill="rgba(255, 255, 255, 1)"></use>
            <use xlink:href="#SvgjsG1092" transform="translate(192, 288) scale(2)" fill="rgba(255, 255, 255, 1)"></use>
            <use xlink:href="#SvgjsG1090" transform="translate(192, 336) scale(2)" fill="rgba(255, 255, 255, 1)"></use>
            <use xlink:href="#SvgjsG1089" transform="translate(192, 384) scale(2)" fill="rgba(255, 255, 255, 1)"></use>
            <use xlink:href="#SvgjsG1092" transform="translate(192, 432) scale(2)" fill="rgba(255, 255, 255, 1)"></use>
            <use xlink:href="#SvgjsG1089" transform="translate(240, 0) scale(2)" fill="rgba(255, 255, 255, 1)"></use>
            <use xlink:href="#SvgjsG1090" transform="translate(240, 48) scale(2)" fill="rgba(255, 255, 255, 1)"></use>
            <use xlink:href="#SvgjsG1089" transform="translate(240, 96) scale(2)" fill="rgba(255, 255, 255, 1)"></use>
            <use xlink:href="#SvgjsG1089" transform="translate(240, 144) scale(2)" fill="rgba(255, 255, 255, 1)"></use>
            <use xlink:href="#SvgjsG1092" transform="translate(240, 192) scale(2)" fill="rgba(255, 255, 255, 1)"></use>
            <use xlink:href="#SvgjsG1091" transform="translate(240, 240) scale(2)" fill="rgba(255, 255, 255, 1)"></use>
            <use xlink:href="#SvgjsG1091" transform="translate(240, 288) scale(2)" fill="rgba(255, 255, 255, 1)"></use>
            <use xlink:href="#SvgjsG1090" transform="translate(240, 336) scale(2)" fill="rgba(255, 255, 255, 1)"></use>
            <use xlink:href="#SvgjsG1092" transform="translate(240, 384) scale(2)" fill="rgba(255, 255, 255, 1)"></use>
            <use xlink:href="#SvgjsG1091" transform="translate(240, 432) scale(2)" fill="rgba(255, 255, 255, 1)"></use>
            <use xlink:href="#SvgjsG1092" transform="translate(288, 0) scale(2)" fill="rgba(255, 255, 255, 1)"></use>
            <use xlink:href="#SvgjsG1090" transform="translate(288, 48) scale(2)" fill="rgba(255, 255, 255, 1)"></use>
            <use xlink:href="#SvgjsG1091" transform="translate(288, 96) scale(2)" fill="rgba(255, 255, 255, 1)"></use>
            <use xlink:href="#SvgjsG1091" transform="translate(288, 144) scale(2)" fill="rgba(255, 255, 255, 1)"></use>
            <use xlink:href="#SvgjsG1089" transform="translate(288, 192) scale(2)" fill="rgba(255, 255, 255, 1)"></use>
            <use xlink:href="#SvgjsG1089" transform="translate(288, 240) scale(2)" fill="rgba(255, 255, 255, 1)"></use>
            <use xlink:href="#SvgjsG1091" transform="translate(288, 288) scale(2)" fill="rgba(255, 255, 255, 1)"></use>
            <use xlink:href="#SvgjsG1091" transform="translate(288, 336) scale(2)" fill="rgba(255, 255, 255, 1)"></use>
            <use xlink:href="#SvgjsG1090" transform="translate(288, 384) scale(2)" fill="rgba(255, 255, 255, 1)"></use>
            <use xlink:href="#SvgjsG1090" transform="translate(288, 432) scale(2)" fill="rgba(255, 255, 255, 1)"></use>
            <use xlink:href="#SvgjsG1090" transform="translate(336, 0) scale(2)" fill="rgba(255, 255, 255, 1)"></use>
            <use xlink:href="#SvgjsG1090" transform="translate(336, 48) scale(2)" fill="rgba(255, 255, 255, 1)"></use>
            <use xlink:href="#SvgjsG1089" transform="translate(336, 96) scale(2)" fill="rgba(255, 255, 255, 1)"></use>
            <use xlink:href="#SvgjsG1092" transform="translate(336, 144) scale(2)" fill="rgba(255, 255, 255, 1)"></use>
            <use xlink:href="#SvgjsG1089" transform="translate(336, 192) scale(2)" fill="rgba(255, 255, 255, 1)"></use>
            <use xlink:href="#SvgjsG1092" transform="translate(336, 240) scale(2)" fill="rgba(255, 255, 255, 1)"></use>
            <use xlink:href="#SvgjsG1091" transform="translate(336, 288) scale(2)" fill="rgba(255, 255, 255, 1)"></use>
            <use xlink:href="#SvgjsG1092" transform="translate(336, 336) scale(2)" fill="rgba(255, 255, 255, 1)"></use>
            <use xlink:href="#SvgjsG1092" transform="translate(336, 384) scale(2)" fill="rgba(255, 255, 255, 1)"></use>
            <use xlink:href="#SvgjsG1091" transform="translate(336, 432) scale(2)" fill="rgba(255, 255, 255, 1)"></use>
            <use xlink:href="#SvgjsG1089" transform="translate(384, 0) scale(2)" fill="rgba(255, 255, 255, 1)"></use>
            <use xlink:href="#SvgjsG1089" transform="translate(384, 48) scale(2)" fill="rgba(255, 255, 255, 1)"></use>
            <use xlink:href="#SvgjsG1090" transform="translate(384, 96) scale(2)" fill="rgba(255, 255, 255, 1)"></use>
            <use xlink:href="#SvgjsG1089" transform="translate(384, 144) scale(2)" fill="rgba(255, 255, 255, 1)"></use>
            <use xlink:href="#SvgjsG1092" transform="translate(384, 192) scale(2)" fill="rgba(255, 255, 255, 1)"></use>
            <use xlink:href="#SvgjsG1089" transform="translate(384, 240) scale(2)" fill="rgba(255, 255, 255, 1)"></use>
            <use xlink:href="#SvgjsG1090" transform="translate(384, 288) scale(2)" fill="rgba(255, 255, 255, 1)"></use>
            <use xlink:href="#SvgjsG1092" transform="translate(384, 336) scale(2)" fill="rgba(255, 255, 255, 1)"></use>
            <use xlink:href="#SvgjsG1092" transform="translate(384, 384) scale(2)" fill="rgba(255, 255, 255, 1)"></use>
            <use xlink:href="#SvgjsG1090" transform="translate(384, 432) scale(2)" fill="rgba(255, 255, 255, 1)"></use>
            <use xlink:href="#SvgjsG1092" transform="translate(432, 0) scale(2)" fill="rgba(255, 255, 255, 1)"></use>
            <use xlink:href="#SvgjsG1092" transform="translate(432, 48) scale(2)" fill="rgba(255, 255, 255, 1)"></use>
            <use xlink:href="#SvgjsG1089" transform="translate(432, 96) scale(2)" fill="rgba(255, 255, 255, 1)"></use>
            <use xlink:href="#SvgjsG1089" transform="translate(432, 144) scale(2)" fill="rgba(255, 255, 255, 1)"></use>
            <use xlink:href="#SvgjsG1091" transform="translate(432, 192) scale(2)" fill="rgba(255, 255, 255, 1)"></use>
            <use xlink:href="#SvgjsG1092" transform="translate(432, 240) scale(2)" fill="rgba(255, 255, 255, 1)"></use>
            <use xlink:href="#SvgjsG1090" transform="translate(432, 288) scale(2)" fill="rgba(255, 255, 255, 1)"></use>
            <use xlink:href="#SvgjsG1090" transform="translate(432, 336) scale(2)" fill="rgba(255, 255, 255, 1)"></use>
            <use xlink:href="#SvgjsG1091" transform="translate(432, 384) scale(2)" fill="rgba(255, 255, 255, 1)"></use>
            <use xlink:href="#SvgjsG1089" transform="translate(432, 432) scale(2)" fill="rgba(255, 255, 255, 1)"></use>
        </g>
    </defs>
</svg>